<svg width="406" height="799" viewBox="0 0 406 799" fill="none" xmlns="http://www.w3.org/2000/svg">
<line x1="83.5151" y1="245.162" x2="83.6008" y2="647.732" stroke="#001F61" stroke-width="2" stroke-dasharray="4 4"/>
<path d="M1 446.389H164" stroke="#001F61" stroke-width="2" stroke-dasharray="4 4"/>
<line x1="1" y1="346.389" x2="164" y2="346.389" stroke="#001F61" stroke-width="2" stroke-dasharray="4 4"/>
<path d="M1 548.389H164" stroke="#001F61" stroke-width="2" stroke-dasharray="4 4"/>
<path d="M1 582.389H164" stroke="#001F61" stroke-width="2" stroke-dasharray="4 4"/>
<line x1="1" y1="514.389" x2="164" y2="514.389" stroke="#001F61" stroke-width="2" stroke-dasharray="4 4"/>
<line x1="1" y1="480.389" x2="164" y2="480.389" stroke="#001F61" stroke-width="2" stroke-dasharray="4 4"/>
<line x1="1" y1="412.389" x2="164" y2="412.389" stroke="#001F61" stroke-width="2" stroke-dasharray="4 4"/>
<line x1="1" y1="379.389" x2="164" y2="379.389" stroke="#001F61" stroke-width="2" stroke-dasharray="4 4"/>
<line x1="1" y1="311.389" x2="164" y2="311.389" stroke="#001F61" stroke-width="2" stroke-dasharray="4 4"/>
<line x1="1" y1="278.389" x2="164" y2="278.389" stroke="#001F61" stroke-width="2" stroke-dasharray="4 4"/>
<path d="M156.216 759C154.936 759 154.008 758.712 153.432 758.136C152.92 757.56 152.664 756.696 152.664 755.544V697.272C152.664 696.056 152.92 695.16 153.432 694.584C154.008 694.008 154.936 693.72 156.216 693.72H196.152C197.432 693.72 198.296 693.976 198.744 694.488C199.256 695 199.512 695.864 199.512 697.08V699.672C199.512 700.888 199.256 701.784 198.744 702.36C198.296 702.872 197.432 703.128 196.152 703.128H164.952V721.752H187.608C188.888 721.752 189.784 722.008 190.296 722.52C190.808 723.032 191.064 723.896 191.064 725.112V727.512C191.064 728.728 190.808 729.624 190.296 730.2C189.784 730.712 188.888 730.968 187.608 730.968H164.952V749.688H196.056C197.336 749.688 198.232 749.976 198.744 750.552C199.256 751.064 199.512 751.928 199.512 753.144V755.736C199.512 756.888 199.256 757.72 198.744 758.232C198.232 758.744 197.336 759 196.056 759H156.216ZM209.417 759C207.305 759 206.249 757.912 206.249 755.736V751.992C206.249 747.896 207.817 743.864 210.953 739.896C214.153 735.928 218.921 732.152 225.257 728.568C229.801 726.008 233.129 723.992 235.241 722.52C237.353 720.984 238.889 719.384 239.849 717.72C240.873 715.992 241.385 713.88 241.385 711.384C241.385 708.12 240.233 705.656 237.929 703.992C235.625 702.264 232.393 701.4 228.233 701.4C225.225 701.4 222.377 701.784 219.689 702.552C217.065 703.256 214.793 704.152 212.873 705.24C212.233 705.56 211.817 705.72 211.625 705.72C211.241 705.72 210.857 705.432 210.473 704.856L207.785 700.152C207.465 699.64 207.305 699.192 207.305 698.808C207.305 698.296 207.593 697.848 208.169 697.464C210.409 695.864 213.449 694.616 217.289 693.72C221.129 692.76 225.321 692.28 229.865 692.28C236.969 692.28 242.697 693.912 247.049 697.176C251.401 700.376 253.577 704.92 253.577 710.808C253.577 715.736 252.041 719.896 248.969 723.288C245.961 726.68 241.193 730.168 234.665 733.752C229.865 736.248 226.057 738.872 223.241 741.624C220.425 744.376 218.921 747.064 218.729 749.688H249.833C251.113 749.688 252.009 749.976 252.521 750.552C253.033 751.064 253.289 751.928 253.289 753.144V755.736C253.289 756.888 253.033 757.72 252.521 758.232C252.009 758.744 251.113 759 249.833 759H209.417Z" fill="#001F61"/>
<line x1="83.5151" y1="245.162" x2="83.6008" y2="647.732" stroke="#001F61" stroke-width="2" stroke-dasharray="4 4"/>
<path d="M1 446.389H164" stroke="#001F61" stroke-width="2" stroke-dasharray="4 4"/>
<line x1="1" y1="346.389" x2="164" y2="346.389" stroke="#001F61" stroke-width="2" stroke-dasharray="4 4"/>
<path d="M1 548.389H164" stroke="#001F61" stroke-width="2" stroke-dasharray="4 4"/>
<path d="M1 582.389H164" stroke="#001F61" stroke-width="2" stroke-dasharray="4 4"/>
<path d="M0 619H163" stroke="#001F61" stroke-width="2" stroke-dasharray="4 4"/>
<path d="M243 619H406" stroke="#001F61" stroke-width="2" stroke-dasharray="4 4"/>
<line x1="1" y1="514.389" x2="164" y2="514.389" stroke="#001F61" stroke-width="2" stroke-dasharray="4 4"/>
<line x1="1" y1="480.389" x2="164" y2="480.389" stroke="#001F61" stroke-width="2" stroke-dasharray="4 4"/>
<line x1="1" y1="412.389" x2="164" y2="412.389" stroke="#001F61" stroke-width="2" stroke-dasharray="4 4"/>
<line x1="1" y1="379.389" x2="164" y2="379.389" stroke="#001F61" stroke-width="2" stroke-dasharray="4 4"/>
<line x1="1" y1="311.389" x2="164" y2="311.389" stroke="#001F61" stroke-width="2" stroke-dasharray="4 4"/>
<line x1="1" y1="278.389" x2="164" y2="278.389" stroke="#001F61" stroke-width="2" stroke-dasharray="4 4"/>
<line x1="324.485" y1="245.162" x2="324.571" y2="647.732" stroke="#001F61" stroke-width="2" stroke-dasharray="4 4"/>
<path d="M242 446.389H405" stroke="#001F61" stroke-width="2" stroke-dasharray="4 4"/>
<line x1="242" y1="346.389" x2="405" y2="346.389" stroke="#001F61" stroke-width="2" stroke-dasharray="4 4"/>
<path d="M242 548.389H405" stroke="#001F61" stroke-width="2" stroke-dasharray="4 4"/>
<path d="M242 582.389H405" stroke="#001F61" stroke-width="2" stroke-dasharray="4 4"/>
<line x1="242" y1="514.389" x2="405" y2="514.389" stroke="#001F61" stroke-width="2" stroke-dasharray="4 4"/>
<line x1="242" y1="480.389" x2="405" y2="480.389" stroke="#001F61" stroke-width="2" stroke-dasharray="4 4"/>
<line x1="242" y1="412.389" x2="405" y2="412.389" stroke="#001F61" stroke-width="2" stroke-dasharray="4 4"/>
<line x1="242" y1="379.389" x2="405" y2="379.389" stroke="#001F61" stroke-width="2" stroke-dasharray="4 4"/>
<line x1="242" y1="311.389" x2="405" y2="311.389" stroke="#001F61" stroke-width="2" stroke-dasharray="4 4"/>
<line x1="242" y1="278.389" x2="405" y2="278.389" stroke="#001F61" stroke-width="2" stroke-dasharray="4 4"/>
<line x1="324.485" y1="245.162" x2="324.571" y2="647.732" stroke="#001F61" stroke-width="2" stroke-dasharray="4 4"/>
<path d="M242 446.389H405" stroke="#001F61" stroke-width="2" stroke-dasharray="4 4"/>
<line x1="242" y1="346.389" x2="405" y2="346.389" stroke="#001F61" stroke-width="2" stroke-dasharray="4 4"/>
<path d="M242 548.389H405" stroke="#001F61" stroke-width="2" stroke-dasharray="4 4"/>
<path d="M242 582.389H405" stroke="#001F61" stroke-width="2" stroke-dasharray="4 4"/>
<line x1="242" y1="514.389" x2="405" y2="514.389" stroke="#001F61" stroke-width="2" stroke-dasharray="4 4"/>
<line x1="242" y1="480.389" x2="405" y2="480.389" stroke="#001F61" stroke-width="2" stroke-dasharray="4 4"/>
<line x1="242" y1="412.389" x2="405" y2="412.389" stroke="#001F61" stroke-width="2" stroke-dasharray="4 4"/>
<line x1="242" y1="379.389" x2="405" y2="379.389" stroke="#001F61" stroke-width="2" stroke-dasharray="4 4"/>
<line x1="242" y1="311.389" x2="405" y2="311.389" stroke="#001F61" stroke-width="2" stroke-dasharray="4 4"/>
<line x1="242" y1="278.389" x2="405" y2="278.389" stroke="#001F61" stroke-width="2" stroke-dasharray="4 4"/>
<line x1="324.855" y1="0.000635834" x2="324.571" y2="446.596" stroke="#001F61" stroke-width="2" stroke-dasharray="4 4"/>
<path d="M242 245.389H405" stroke="#001F61" stroke-width="2" stroke-dasharray="4 4"/>
<line x1="242" y1="145.389" x2="405" y2="145.389" stroke="#001F61" stroke-width="2" stroke-dasharray="4 4"/>
<line x1="242" y1="211.389" x2="405" y2="211.389" stroke="#001F61" stroke-width="2" stroke-dasharray="4 4"/>
<line x1="242" y1="178.389" x2="405" y2="178.389" stroke="#001F61" stroke-width="2" stroke-dasharray="4 4"/>
<line x1="242" y1="110.389" x2="405" y2="110.389" stroke="#001F61" stroke-width="2" stroke-dasharray="4 4"/>
<line x1="242" y1="77.3889" x2="405" y2="77.3889" stroke="#001F61" stroke-width="2" stroke-dasharray="4 4"/>
<path d="M242 245.389H405" stroke="#001F61" stroke-width="2" stroke-dasharray="4 4"/>
<line x1="242" y1="145.389" x2="405" y2="145.389" stroke="#001F61" stroke-width="2" stroke-dasharray="4 4"/>
<line x1="242" y1="211.389" x2="405" y2="211.389" stroke="#001F61" stroke-width="2" stroke-dasharray="4 4"/>
<line x1="242" y1="178.389" x2="405" y2="178.389" stroke="#001F61" stroke-width="2" stroke-dasharray="4 4"/>
<line x1="242" y1="110.389" x2="405" y2="110.389" stroke="#001F61" stroke-width="2" stroke-dasharray="4 4"/>
<line x1="242" y1="77.3889" x2="405" y2="77.3889" stroke="#001F61" stroke-width="2" stroke-dasharray="4 4"/>
<line x1="242" y1="43.3889" x2="405" y2="43.3889" stroke="#001F61" stroke-width="2" stroke-dasharray="4 4"/>
</svg>
