<svg width="70" height="32" viewBox="0 0 70 32" fill="none" xmlns="http://www.w3.org/2000/svg">
<path d="M0.0167208 16.7384C0.0173721 16.7554 0.0176174 16.7726 0.0183087 16.7896C0.0192155 16.8119 0.0213293 16.8341 0.0223963 16.8563C0.0251663 16.9081 0.026589 16.9602 0.0298752 17.0118C0.0328305 17.0582 0.036838 17.1044 0.0404346 17.1508C0.0418872 17.1694 0.0431395 17.188 0.0446824 17.2067C0.0540648 17.32 0.0652853 17.4333 0.0778586 17.5464C0.0815805 17.5795 0.0856028 17.6127 0.0895652 17.6458C0.0987872 17.7237 0.108781 17.8014 0.11918 17.8791C0.13025 17.9613 0.141812 18.0435 0.153909 18.1256C0.160942 18.1733 0.16789 18.2211 0.175223 18.2687C0.179942 18.2994 0.18411 18.3301 0.188933 18.3608C0.192235 18.3817 0.196052 18.4025 0.199378 18.4235C0.22776 18.6027 0.257324 18.7818 0.286924 18.9607C0.391236 19.5912 0.511388 20.2202 0.635071 20.8471C0.644393 20.8944 0.654487 20.9415 0.663984 20.9887C0.681837 21.0774 0.69976 21.1662 0.71832 21.2548C0.735647 21.3373 0.75382 21.4197 0.771843 21.5021C0.781501 21.5463 0.790643 21.5906 0.800526 21.6347C0.804609 21.6529 0.809107 21.6711 0.813225 21.6893C0.830917 21.7675 0.849286 21.8456 0.86775 21.9237C0.885183 21.9972 0.903041 22.0706 0.921254 22.144C0.938806 22.2147 0.956594 22.2854 0.974978 22.356C0.993171 22.4259 1.01237 22.4955 1.0314 22.5652C1.04757 22.6244 1.06252 22.6839 1.07933 22.7429C1.08537 22.7641 1.09256 22.785 1.09872 22.8062C1.11593 22.8653 1.13472 22.9239 1.15286 22.9827C1.17626 23.0591 1.19909 23.1355 1.22393 23.2114C1.22516 23.2152 1.22622 23.219 1.22746 23.2228C1.27171 23.3575 1.31904 23.4912 1.3685 23.6241C1.37507 23.6417 1.38234 23.6591 1.389 23.6767C1.43259 23.7922 1.47789 23.9071 1.525 24.0213C1.54818 24.0774 1.57257 24.1329 1.59656 24.1886C1.63005 24.2665 1.66377 24.3442 1.69885 24.4214C1.70948 24.4448 1.71906 24.4686 1.72982 24.4919C1.74633 24.5276 1.76417 24.5628 1.78094 24.5984C1.79871 24.6361 1.81554 24.6744 1.83364 24.712C1.85184 24.7498 1.87116 24.7871 1.88965 24.8248C1.92218 24.8911 1.95477 24.9574 1.98817 25.0233C2.01454 25.0755 2.0416 25.1273 2.06849 25.1793C2.22271 25.4772 2.38489 25.7711 2.55402 26.0606C2.57301 26.0933 2.59148 26.1263 2.61061 26.1589C2.61509 26.1665 2.61975 26.1741 2.62423 26.1817C2.62988 26.1912 2.63524 26.2009 2.6409 26.2105C2.69912 26.3083 2.75781 26.4065 2.81691 26.5046C2.81925 26.5085 2.8216 26.5124 2.82394 26.5162C3.09448 26.965 3.37849 27.4115 3.71472 27.8114C3.82252 27.9396 3.93901 28.0561 4.06167 28.1644C4.21781 28.3059 4.38589 28.4347 4.57015 28.5471C4.74435 28.6534 4.92574 28.7473 5.11084 28.8339C5.11723 28.8369 5.12347 28.8401 5.12988 28.843C5.13874 28.8471 5.14775 28.8509 5.15663 28.855C5.27272 28.9082 5.38983 28.9594 5.50846 29.007C5.91998 29.1752 6.34423 29.3151 6.77248 29.4334C6.80099 29.4413 6.82956 29.4489 6.8581 29.4566C6.89434 29.4663 6.93052 29.4765 6.9668 29.4859C7.15404 29.5348 7.34263 29.5768 7.53208 29.6138C7.55432 29.6181 7.57632 29.6236 7.59858 29.6278C7.61454 29.6309 7.63063 29.6329 7.64661 29.6358C7.74477 29.6539 7.84317 29.6701 7.94174 29.685C7.98519 29.6916 8.02872 29.6977 8.07225 29.7037C8.17931 29.7184 8.28647 29.7324 8.39392 29.7438C8.40421 29.7449 8.41452 29.7458 8.42481 29.7468C8.57005 29.7621 8.71564 29.7749 8.86158 29.7846C9.41416 29.8215 9.96987 29.8247 10.5234 29.8192C10.9224 29.8152 11.3213 29.8092 11.7202 29.8042C12.1925 29.7983 12.6648 29.7924 13.1371 29.7866C13.2001 29.7858 13.2631 29.7851 13.3261 29.7844C14.127 29.7753 14.928 29.7661 15.7289 29.757C16.5579 29.7476 17.3869 29.7381 18.2158 29.7286C18.9463 29.7203 19.6767 29.712 20.4071 29.7037C20.9137 29.6979 21.4201 29.6922 21.9267 29.6864C21.9927 29.6856 22.0587 29.6846 22.1247 29.6837C22.2887 29.6848 22.4527 29.686 22.6167 29.6867C23.0691 29.6884 23.5215 29.69 23.9739 29.6917C24.0448 29.692 24.1156 29.6922 24.1865 29.6925C24.1891 29.6926 24.1925 29.6922 24.1953 29.6921C24.2297 29.6923 24.2641 29.6925 24.2984 29.6927C24.2988 29.6929 24.2994 29.6928 24.2998 29.693C24.3328 29.7051 24.35 29.7611 24.3692 29.7942C24.411 29.8663 24.4543 29.9376 24.4988 30.0082C24.5186 30.0397 24.54 30.0702 24.5605 30.1013C24.5909 30.1489 24.6221 30.1961 24.6542 30.2429C24.6671 30.2616 24.6804 30.2801 24.6936 30.2987C24.714 30.3276 24.7342 30.3566 24.7553 30.3853C24.7607 30.3926 24.7665 30.4 24.7719 30.4073C24.9508 30.6479 25.1561 30.8898 25.4009 31.0713C25.4142 31.0812 25.4276 31.0912 25.4412 31.1007C25.4567 31.1118 25.4725 31.1226 25.4884 31.1331C25.5221 31.1554 25.5566 31.1763 25.5919 31.196C25.5938 31.1971 25.5956 31.1984 25.5976 31.1994C25.604 31.203 25.6112 31.2056 25.6177 31.209C25.6422 31.222 25.6665 31.2351 25.6919 31.2465C25.7011 31.2506 25.7107 31.2538 25.72 31.2577C25.7292 31.2616 25.7386 31.2651 25.7479 31.2688C25.778 31.2808 25.809 31.2914 25.8402 31.3016C25.8589 31.3075 25.8775 31.3139 25.8965 31.3191C25.9011 31.3204 25.9059 31.3214 25.9106 31.3227C26.1479 31.3883 26.408 31.4053 26.646 31.3733C26.7495 31.3655 26.8873 31.3452 26.9446 31.2732C26.9511 31.2655 26.9569 31.2573 26.9612 31.248C26.9614 31.2476 26.9616 31.2474 26.9617 31.247C26.9657 31.2381 26.9688 31.2286 26.9705 31.2184C26.9705 31.2179 26.9705 31.2175 26.9706 31.217C26.9705 31.2172 26.9706 31.2168 26.9706 31.217C26.9707 31.2158 26.9707 31.214 26.9709 31.2128C26.972 31.2039 26.9721 31.1948 26.9721 31.1856C26.9721 31.082 26.9031 30.9632 26.8664 30.8757C26.7047 30.4895 26.544 30.1034 26.3862 29.7157C26.8793 29.7199 27.3723 29.7241 27.8654 29.7281C28.7394 29.7355 29.6133 29.7428 30.4872 29.7502C30.8638 29.7534 31.2407 29.7605 31.6174 29.7592C31.6744 29.7589 31.7314 29.7587 31.7884 29.7585C32.0033 29.7582 32.2181 29.757 32.433 29.7564C33.0455 29.7546 33.6579 29.7529 34.2704 29.7511C34.8752 29.7494 35.48 29.7476 36.0847 29.7459C36.3408 29.7451 36.597 29.7461 36.8531 29.7437C36.9448 29.7428 37.0365 29.7408 37.1282 29.7393C37.2063 29.7388 37.2845 29.7388 37.3626 29.738C37.7285 29.7343 38.0946 29.7262 38.4605 29.7202C39.2904 29.7068 40.1203 29.6934 40.9503 29.6799C41.8026 29.6661 42.6549 29.6523 43.5072 29.6385C43.9346 29.6316 44.3621 29.6233 44.7896 29.6178C45.3244 29.6139 45.8592 29.6099 46.3941 29.606C46.779 29.6032 47.1635 29.604 47.5484 29.6066C47.8955 29.609 48.2423 29.6141 48.5892 29.6201C48.9735 29.628 49.3578 29.6366 49.742 29.6512C50.5788 29.6828 51.4156 29.7144 52.2524 29.7461C52.7153 29.7636 53.1781 29.781 53.641 29.7957C53.9782 29.8063 54.3153 29.8167 54.6524 29.826C54.6538 29.8261 54.6551 29.8261 54.6564 29.8262C54.9456 29.8365 55.2347 29.8414 55.5241 29.8468C55.5283 29.8468 55.5326 29.8468 55.5368 29.8469C55.5725 29.8476 55.608 29.8488 55.6437 29.8494C56.2246 29.8602 56.8059 29.8655 57.3869 29.8618C57.6053 29.8604 57.8237 29.8574 58.042 29.8535C58.0945 29.8527 58.147 29.8523 58.1994 29.8514C58.2326 29.8509 58.2658 29.8493 58.299 29.8487C58.3519 29.8476 58.4049 29.8457 58.4578 29.8443C58.6297 29.8397 58.8016 29.834 58.9734 29.8272C59.0678 29.8235 59.1622 29.8202 59.2566 29.8157C59.3228 29.8126 59.3889 29.8076 59.4551 29.8037C59.4613 29.8034 59.4674 29.8032 59.4736 29.8028C59.483 29.8023 59.4923 29.8015 59.5017 29.8009C59.6132 29.7941 59.7246 29.7869 59.8359 29.7782C59.9627 29.7684 60.0895 29.7576 60.2161 29.7454C60.3208 29.7351 60.4255 29.7242 60.5301 29.7121C60.5605 29.7085 60.5909 29.7048 60.6212 29.7011C60.6623 29.6961 60.7034 29.6917 60.7444 29.6863C60.778 29.6819 60.8113 29.6765 60.8448 29.6718C60.8987 29.6646 60.9527 29.6583 61.0064 29.6506C61.0184 29.6489 61.0303 29.6468 61.0422 29.645C61.0426 29.6449 61.043 29.645 61.0433 29.6448C61.3516 29.5991 61.6569 29.538 61.9619 29.475C61.9822 29.4709 62.0024 29.4671 62.0226 29.4629C62.2879 29.4088 62.5531 29.3557 62.8192 29.3074C62.8849 29.2964 62.9506 29.2857 63.0163 29.2761C63.2039 29.2548 63.3903 29.2249 63.5751 29.187C63.6456 29.1767 63.716 29.1664 63.7865 29.1564C64.2174 29.0998 64.6503 29.052 65.0805 28.9904C65.1616 28.9801 65.2425 28.9681 65.3232 28.955C65.3271 28.9543 65.3311 28.9539 65.335 28.9532C65.3398 28.9525 65.3445 28.9513 65.3493 28.9506C65.5022 28.9249 65.6538 28.8932 65.802 28.8478C65.9929 28.7892 66.1782 28.7113 66.3574 28.6214C66.3684 28.616 66.3792 28.6104 66.3901 28.6048C66.4331 28.5828 66.476 28.5606 66.5182 28.537C66.5762 28.5048 66.6337 28.4715 66.6904 28.4364C66.6954 28.4333 66.7006 28.4305 66.7056 28.4274C66.7076 28.4261 66.7095 28.4248 66.7114 28.4235C66.757 28.3948 66.8021 28.3654 66.8464 28.335C66.852 28.3312 66.8573 28.3271 66.8628 28.3233C66.8666 28.3206 66.8703 28.3179 66.8741 28.3152C67.1759 28.1042 67.4402 27.8491 67.654 27.5492C67.661 27.5393 67.6675 27.529 67.6744 27.5191C67.676 27.5169 67.6774 27.5146 67.679 27.5123C67.7104 27.4676 67.7404 27.4217 67.7697 27.3751C67.7736 27.3689 67.7779 27.3631 67.7818 27.3569C67.787 27.3485 67.7916 27.3397 67.7967 27.3313C67.8238 27.2869 67.85 27.242 67.8754 27.1967C67.8819 27.185 67.8886 27.1735 67.8951 27.1617C67.9262 27.1048 67.9563 27.0474 67.985 26.9893C67.9854 26.9886 67.9858 26.9878 67.9862 26.987C68.0131 26.9326 68.0385 26.8774 68.0634 26.822C68.0768 26.792 68.0898 26.7618 68.1027 26.7316C68.113 26.7075 68.1232 26.6833 68.1333 26.6591C68.1484 26.6223 68.1633 26.5855 68.1777 26.5485C68.1832 26.5343 68.1885 26.5202 68.1939 26.506C68.2094 26.4656 68.2247 26.4251 68.2394 26.3845C68.2444 26.3706 68.2486 26.3565 68.2535 26.3427C68.2816 26.2635 68.3088 26.1841 68.3343 26.1041C68.339 26.0893 68.3438 26.0745 68.3485 26.0596C68.3755 25.9736 68.4016 25.8875 68.4263 25.8012C68.427 25.7988 68.4276 25.7964 68.4283 25.7941C68.4594 25.6854 68.489 25.5762 68.5182 25.4669C68.6328 25.0382 68.7342 24.6057 68.8256 24.1718C68.8378 24.114 68.8485 24.0559 68.8602 23.998C68.8703 23.9492 68.8807 23.9004 68.8905 23.8515C68.909 23.7604 68.9265 23.6691 68.9439 23.5778C68.9493 23.5493 68.9546 23.5209 68.96 23.4924C69.0024 23.265 69.0421 23.0371 69.0783 22.8088C69.0782 22.8088 69.0784 22.8087 69.0783 22.8088C69.0856 22.7629 69.0925 22.7169 69.0995 22.6709C69.1048 22.6372 69.1103 22.6035 69.1155 22.5697C69.1168 22.561 69.1178 22.5523 69.1191 22.5437C69.1221 22.5234 69.1255 22.5031 69.1285 22.4827C69.1437 22.3774 69.1575 22.2719 69.1713 22.1664C69.2099 21.8797 69.2453 21.5926 69.2743 21.3048C69.2925 21.125 69.3083 20.9449 69.3233 20.7647C69.3242 20.7547 69.3253 20.7448 69.3262 20.7348C69.3321 20.6674 69.337 20.5999 69.3424 20.5325C69.3545 20.3793 69.3659 20.226 69.3762 20.0727C69.3776 20.052 69.3794 20.0313 69.3808 20.0106C69.3814 20.0009 69.3817 19.9912 69.3824 19.9815C69.3961 19.7696 69.4075 19.5575 69.418 19.3454C69.4203 19.297 69.4228 19.2487 69.425 19.2003C69.4264 19.1709 69.428 19.1415 69.4293 19.1121C69.4305 19.0875 69.4313 19.063 69.4324 19.0385C69.4392 18.8897 69.4461 18.7409 69.4528 18.5921C69.47 18.2095 69.4819 17.8266 69.4915 17.4437C69.4918 17.4288 69.4922 17.4139 69.4925 17.3989C69.4926 17.3981 69.4926 17.3973 69.4926 17.3965C69.4928 17.3884 69.493 17.3803 69.4932 17.3721C69.5046 16.918 69.5167 16.4638 69.518 16.0095C69.5193 15.5697 69.5058 15.1297 69.4948 14.6901C69.4947 14.686 69.4946 14.6818 69.4945 14.6777C69.4944 14.6757 69.4944 14.6737 69.4943 14.6716C69.4847 14.2845 69.4749 13.8969 69.4574 13.51C69.4534 13.4215 69.4491 13.3331 69.4451 13.2446C69.4285 12.8587 69.4095 12.4729 69.3865 12.0874C69.3864 12.0853 69.3862 12.0833 69.3861 12.0812C69.3855 12.0715 69.3851 12.0618 69.3845 12.052C69.3829 12.024 69.3804 11.996 69.3787 11.968C69.3694 11.8196 69.359 11.6712 69.3476 11.5229C69.3437 11.472 69.3398 11.4211 69.3357 11.3702C69.321 11.1905 69.3054 11.0109 69.288 10.8317C69.2878 10.8292 69.2876 10.8268 69.2874 10.8243C69.2865 10.8155 69.2853 10.8067 69.2845 10.7979C69.2722 10.6743 69.2595 10.5507 69.2458 10.4273C69.2395 10.3712 69.2324 10.3152 69.2258 10.2591C69.2197 10.2071 69.2137 10.1552 69.2073 10.1032C69.1831 9.90779 69.1573 9.71253 69.1286 9.51767C69.1279 9.51305 69.1274 9.50842 69.1267 9.50379C69.1179 9.44423 69.1086 9.3847 69.0994 9.32515C69.0926 9.28058 69.0856 9.23604 69.0786 9.19148C69.0786 9.19148 69.0786 9.19147 69.0786 9.19148C69.0761 9.17587 69.0738 9.16024 69.0713 9.14463C69.024 8.84904 68.9722 8.55397 68.9133 8.26065C68.8266 7.82907 68.7368 7.39774 68.6296 6.97065C68.6267 6.95898 68.6237 6.94731 68.6208 6.93564C68.5224 6.53295 68.4168 6.13031 68.2818 5.73807C68.2782 5.72752 68.2751 5.71681 68.2715 5.70628C68.2672 5.69391 68.2626 5.68162 68.2582 5.66926C68.2523 5.65264 68.2463 5.63607 68.2403 5.61948C68.2202 5.5639 68.1996 5.50848 68.1781 5.45341C68.1771 5.45078 68.1762 5.4481 68.1751 5.44547C68.1747 5.44438 68.1742 5.44331 68.1738 5.44223C68.1016 5.25774 68.0205 5.07646 67.9283 4.90117C67.9265 4.89766 67.9246 4.89417 67.9227 4.89066C67.8938 4.83608 67.8637 4.78217 67.8325 4.72894C67.83 4.72469 67.8276 4.7204 67.8251 4.71615C67.7887 4.65457 67.7512 4.59359 67.7114 4.53407C67.6795 4.48642 67.6461 4.44008 67.6118 4.3944C67.6043 4.38438 67.5965 4.37461 67.5889 4.36468C67.5645 4.33267 67.5392 4.30141 67.5136 4.27031C67.4935 4.24619 67.4736 4.22199 67.4529 4.1985C67.4474 4.19227 67.4416 4.1863 67.4361 4.18011C67.4061 4.14636 67.3765 4.11231 67.3448 4.07988C67.2822 4.01572 67.2157 3.95515 67.1475 3.89627C67.1463 3.89523 67.1451 3.89421 67.1439 3.89317C67.1004 3.8557 67.0555 3.81972 67.01 3.78447C66.9917 3.77028 66.9731 3.75652 66.9545 3.74268C66.9434 3.73444 66.9327 3.7258 66.9214 3.71769C66.9143 3.71258 66.9067 3.70808 66.8996 3.70301C66.8398 3.66013 66.7787 3.61892 66.7163 3.5796C66.7131 3.57757 66.7099 3.57544 66.7067 3.57341C66.6355 3.52888 66.5634 3.48583 66.4896 3.44599C66.4665 3.43353 66.4438 3.4204 66.4205 3.40841C66.4151 3.4056 66.4096 3.40306 66.4042 3.40028C66.2377 3.31438 66.0653 3.24 65.8886 3.18015C65.6517 3.09988 65.4071 3.05604 65.1606 3.02226C64.9902 2.99758 64.8187 2.97768 64.6474 2.95771C64.289 2.91315 63.9313 2.86509 63.574 2.81296C63.5731 2.81276 63.5722 2.81263 63.5712 2.81245C63.4738 2.79466 63.3767 2.77503 63.2787 2.75919C63.2714 2.75801 63.2642 2.75639 63.2569 2.75527C63.2356 2.752 63.2143 2.74964 63.1929 2.7467C63.1533 2.74125 63.1137 2.7358 63.074 2.7308C63.0153 2.72339 62.9567 2.71444 62.8981 2.70571C62.6559 2.66309 62.4144 2.617 62.1732 2.56777C62.0277 2.5381 61.8824 2.50877 61.737 2.48008C61.6188 2.45675 61.5005 2.43454 61.382 2.41324C61.3144 2.4011 61.2469 2.38858 61.1791 2.37761C61.1625 2.37492 61.1461 2.37151 61.1295 2.36891C61.1033 2.36479 61.0769 2.36168 61.0507 2.3577C61.0478 2.35677 61.0449 2.35581 61.0421 2.35488V2.35648C61.031 2.35481 61.0198 2.3534 61.0087 2.35176C60.9625 2.34483 60.9165 2.33701 60.8701 2.33071C60.8417 2.32686 60.8132 2.32366 60.7847 2.31994C60.729 2.31267 60.6733 2.30557 60.6175 2.29885C60.5551 2.29127 60.4926 2.28428 60.43 2.27743C60.3686 2.27069 60.3072 2.26371 60.2458 2.2576C60.1268 2.24588 60.0076 2.23503 59.8884 2.22565C59.869 2.2241 59.8496 2.22292 59.8302 2.22143C59.7502 2.21529 59.6703 2.20915 59.5902 2.20402C59.5654 2.20243 59.5404 2.2017 59.5156 2.20018C59.4955 2.19896 59.4753 2.19726 59.4552 2.19609C59.3032 2.18734 59.1511 2.17997 58.999 2.17353C58.9188 2.17014 58.8385 2.16754 58.7583 2.16472C58.6439 2.16073 58.5295 2.15713 58.4151 2.15419C58.3666 2.15296 58.3182 2.15082 58.2698 2.14974C58.2377 2.14903 58.2056 2.14881 58.1735 2.14815C58.1358 2.14737 58.098 2.14697 58.0602 2.14627C57.9494 2.14431 57.8385 2.1424 57.7276 2.14116C57.7143 2.14101 57.701 2.14112 57.6877 2.14099C57.4738 2.13842 57.2598 2.13683 57.046 2.13807C57.0418 2.13809 57.0376 2.13812 57.0333 2.13814C56.8105 2.1394 56.5877 2.14051 56.3649 2.14225C56.2511 2.14318 56.1372 2.14279 56.0234 2.14435C55.9245 2.14567 55.8256 2.14815 55.7267 2.14983C55.7094 2.15013 55.6921 2.15015 55.6748 2.15047C55.3561 2.15635 55.0374 2.16018 54.7189 2.17162C54.6775 2.1731 54.6361 2.17459 54.5948 2.17607C54.5076 2.17862 54.4203 2.18052 54.3331 2.18328C53.8428 2.19879 53.3523 2.21316 52.8619 2.23169C52.0853 2.26107 51.3086 2.29038 50.532 2.31977C50.3674 2.32598 50.2028 2.33286 50.0381 2.33968C49.9464 2.34298 49.8547 2.34627 49.7629 2.34956C49.5336 2.35773 49.3044 2.36679 49.0749 2.37128C49.0589 2.37159 49.0428 2.37186 49.0267 2.37218C48.4727 2.38274 47.9189 2.38988 47.3647 2.39435C47.0839 2.39594 46.8032 2.39701 46.5224 2.39495C46.0734 2.3917 45.6245 2.38839 45.1755 2.3851C44.9394 2.3832 44.7034 2.38129 44.4672 2.37764C44.4445 2.37727 44.4218 2.37705 44.3991 2.37668C43.7941 2.36705 43.1891 2.3574 42.584 2.34785C42.2645 2.34276 41.9449 2.33768 41.6254 2.3326C41.4546 2.32988 41.2839 2.32715 41.1132 2.32442C40.4636 2.31406 39.8139 2.30369 39.1643 2.29333C38.6687 2.28546 38.1731 2.27753 37.6775 2.26966C37.5744 2.2679 37.4714 2.26606 37.3683 2.26422C37.3665 2.26366 37.3648 2.26303 37.363 2.26247L37.3638 2.26413C37.2294 2.26173 37.095 2.25986 36.9606 2.25824C36.9276 2.2578 36.8947 2.25704 36.8617 2.25667C36.7186 2.25505 36.5755 2.25487 36.4324 2.2548C36.137 2.25378 35.8415 2.25327 35.5461 2.25268C35.1726 2.25158 34.7991 2.2505 34.4257 2.24941C33.8832 2.24784 33.3408 2.24628 32.7984 2.24472C32.717 2.24449 32.6356 2.24425 32.5542 2.24402C32.2517 2.24318 31.9492 2.24125 31.6466 2.24143C31.6254 2.24144 31.6042 2.24121 31.583 2.24124C31.4411 2.24144 31.2992 2.24276 31.1572 2.24422C30.8581 2.24661 30.5589 2.24954 30.2598 2.25223C29.8631 2.25556 29.4664 2.25888 29.0696 2.26222C28.4563 2.26737 27.843 2.27252 27.2297 2.27765C26.9485 2.28002 26.6673 2.28238 26.3861 2.28474C26.5303 1.93041 26.677 1.5772 26.8248 1.22421C26.8407 1.18715 26.8561 1.14998 26.8716 1.11274C26.9097 1.02555 26.9733 0.911415 26.972 0.811419C26.9719 0.807098 26.9717 0.802826 26.9714 0.798563C26.971 0.793629 26.9714 0.788507 26.9707 0.783663C26.97 0.779097 26.9682 0.775352 26.967 0.771101C26.9662 0.767895 26.9666 0.764423 26.9655 0.761284C26.9646 0.758867 26.9631 0.756824 26.9621 0.754486C26.9616 0.753199 26.9609 0.752003 26.9603 0.750744C26.9558 0.741507 26.9499 0.733343 26.9432 0.72571C26.8816 0.648657 26.7311 0.628727 26.6133 0.622969C26.3581 0.593645 26.0804 0.619541 25.8342 0.700705C25.817 0.706379 25.8002 0.712566 25.7833 0.718777C25.7631 0.726044 25.7428 0.732874 25.7229 0.741089C25.6867 0.756067 25.6511 0.772512 25.6163 0.790834C25.6126 0.792753 25.6091 0.795006 25.6055 0.796959C25.603 0.798326 25.6001 0.799341 25.5976 0.80072C25.5912 0.804214 25.5852 0.808483 25.5789 0.812067C25.5434 0.832132 25.5083 0.852932 25.4743 0.875605C25.4732 0.876299 25.4721 0.876987 25.4711 0.877682C25.4309 0.904623 25.392 0.933655 25.3538 0.963768C24.9787 1.25331 24.6896 1.68025 24.451 2.06883C24.4104 2.13495 24.3709 2.20181 24.3331 2.26948C24.3101 2.31056 24.3145 2.30558 24.275 2.30752C24.1716 2.30816 24.0682 2.3088 23.9649 2.30944C23.9409 2.30919 23.9169 2.30891 23.893 2.30899C23.4304 2.3107 22.9677 2.31242 22.505 2.31413C22.3792 2.31459 22.2534 2.31541 22.1275 2.31618C22.0728 2.3155 22.0181 2.31485 21.9634 2.31423C21.4694 2.3086 20.9754 2.30296 20.4814 2.29733C19.7574 2.28909 19.0333 2.28084 18.3093 2.2726C17.4818 2.26313 16.6543 2.25374 15.8268 2.24428C15.02 2.23504 14.2131 2.2259 13.4063 2.21668C13.2325 2.2147 13.0588 2.21273 12.885 2.21075C12.4719 2.20559 12.0588 2.20044 11.6457 2.19528C11.2682 2.19055 10.8905 2.18442 10.513 2.18116C10.3472 2.17972 10.1814 2.17962 10.0155 2.18053C10.0154 2.18062 10.0157 2.18044 10.0155 2.18053C9.98626 2.18069 9.95697 2.1813 9.9277 2.18155C9.85205 2.18221 9.7764 2.18284 9.70076 2.18418C9.63506 2.18532 9.56939 2.18727 9.5037 2.18904C9.4357 2.19088 9.36764 2.19154 9.29967 2.19407C9.26128 2.1955 9.223 2.19844 9.18462 2.20016C9.06558 2.20524 8.94659 2.21135 8.82769 2.21906C8.80527 2.22051 8.7828 2.22124 8.76039 2.22279C8.56103 2.23661 8.36241 2.25724 8.16454 2.28314C8.12575 2.28821 8.0869 2.29285 8.04818 2.29839C8.04417 2.29894 8.04019 2.29958 8.03619 2.30015C7.94865 2.31277 7.86138 2.327 7.77423 2.34202C7.74044 2.34772 7.7065 2.35209 7.67277 2.35823C7.64753 2.36283 7.6226 2.36888 7.59741 2.37368C7.50231 2.39183 7.40743 2.411 7.31295 2.43201C7.27552 2.44025 7.23823 2.44915 7.20089 2.45783C7.08977 2.48364 6.9789 2.51067 6.86864 2.54025C6.41575 2.66169 5.96524 2.80689 5.5294 2.98399C5.52268 2.98673 5.51586 2.98924 5.50915 2.99199C5.50592 2.99329 5.50273 2.99469 5.49951 2.996C5.19793 3.11767 4.90297 3.25586 4.62382 3.42073C4.39376 3.55663 4.18686 3.71599 3.9979 3.89496C3.96941 3.92194 3.94114 3.94916 3.91348 3.97704C3.90421 3.98624 3.89505 3.99558 3.88587 4.0049C3.81093 4.08102 3.73793 4.15975 3.66917 4.24428C3.26711 4.73847 2.93201 5.29339 2.61045 5.84137C2.59501 5.86768 2.58023 5.89442 2.56487 5.92079C2.50343 6.02635 2.44232 6.13214 2.38245 6.23869C2.36694 6.26636 2.35174 6.29421 2.33635 6.32196C2.2843 6.41553 2.2332 6.50963 2.18262 6.60402C2.14817 6.66859 2.114 6.73329 2.08028 6.79823C2.04981 6.85671 2.01994 6.91547 1.99013 6.97427C1.95333 7.04691 1.91666 7.11962 1.88078 7.19268C1.87294 7.20865 1.86467 7.22445 1.85687 7.24044C1.82245 7.311 1.78996 7.38249 1.75677 7.45365C1.73946 7.49081 1.72097 7.52744 1.70397 7.56474C1.70148 7.57022 1.69932 7.57581 1.69684 7.58128C1.64845 7.68797 1.60191 7.79548 1.55645 7.90343C1.55608 7.9043 1.55573 7.90518 1.55537 7.90605C1.4423 8.17465 1.33812 8.44692 1.24527 8.72309C1.22625 8.77968 1.20948 8.8369 1.19138 8.89375C1.18833 8.90332 1.18532 8.91291 1.1823 8.92249C1.1457 9.03711 1.11169 9.15263 1.07817 9.26833C1.06901 9.29996 1.05864 9.33118 1.0497 9.3629C1.03699 9.40799 1.02577 9.45354 1.01345 9.49876C1.0083 9.51766 1.00338 9.53663 0.998296 9.55555C0.876907 10.0073 0.773476 10.4645 0.681422 10.9231C0.664661 11.0066 0.647389 11.0901 0.631299 11.1736C0.626054 11.2009 0.620965 11.2281 0.615725 11.2554C0.571008 11.4838 0.527217 11.7124 0.484308 11.941C0.477886 11.9752 0.471965 12.0095 0.465584 12.0437C0.446664 12.1447 0.42816 12.2459 0.409661 12.347C0.409595 12.347 0.409726 12.347 0.409661 12.347C0.388261 12.464 0.366922 12.581 0.346269 12.6982C0.336571 12.7532 0.327434 12.8083 0.317931 12.8633C0.301336 12.9594 0.284374 13.0554 0.26846 13.1516C0.252355 13.2489 0.236501 13.3463 0.220852 13.4437C0.215022 13.48 0.208369 13.5162 0.202639 13.5526C0.196062 13.5943 0.190632 13.6363 0.184295 13.678C0.164123 13.8094 0.144552 13.9408 0.126629 14.0724C0.121003 14.1137 0.115679 14.1551 0.110344 14.1964C0.0988525 14.2854 0.0881977 14.3745 0.0782694 14.4637C0.0708007 14.5309 0.0637027 14.5981 0.0573008 14.6654C0.0527525 14.713 0.0483643 14.7605 0.044392 14.8081C0.0364875 14.9027 0.0294145 14.9975 0.0240495 15.0924C0.0234333 15.1033 0.0232781 15.1143 0.022687 15.1252C0.022146 15.1357 0.0210289 15.1462 0.020523 15.1568C0.0183289 15.2024 0.0174624 15.2483 0.0156591 15.294C-0.00546014 15.774 -0.00532485 16.258 0.0167208 16.7384ZM17.3863 11.1082C17.3894 11.0966 17.3926 11.0851 17.3957 11.0735C17.4224 10.9735 17.4503 10.8737 17.4791 10.7743C17.4816 10.7655 17.4842 10.7567 17.4867 10.748C17.549 10.5345 17.6157 10.3224 17.6851 10.1111C17.7969 9.77271 17.9178 9.43778 18.0431 9.10418C18.0656 9.04473 18.0887 8.98548 18.1116 8.92619C18.1417 8.84794 18.1722 8.76983 18.2032 8.69191C18.2317 8.62027 18.2605 8.5488 18.2898 8.47744C18.3691 8.28297 18.4513 8.08961 18.5361 7.89743C18.5463 7.87442 18.5563 7.85138 18.5665 7.8284C18.5916 7.77217 18.617 7.71609 18.6426 7.6601C18.6658 7.60918 18.6893 7.55841 18.713 7.5077C18.7314 7.46824 18.7498 7.42879 18.7686 7.38947C18.8018 7.31959 18.8358 7.25005 18.8702 7.18067C18.8837 7.15328 18.8969 7.12572 18.9106 7.09839C18.9546 7.0107 18.9997 6.92355 19.0454 6.83675C19.0679 6.79423 19.0909 6.75206 19.1138 6.70977C19.142 6.65767 19.1703 6.60569 19.1991 6.55396C19.2157 6.52407 19.2327 6.49434 19.2495 6.46458C19.2544 6.45599 19.2592 6.44737 19.2641 6.43879C19.3036 6.36949 19.3439 6.30063 19.3847 6.23206C19.3965 6.21209 19.4082 6.192 19.4202 6.17209C19.4363 6.14541 19.453 6.11894 19.4692 6.09231C19.6474 5.80159 19.8355 5.51661 20.0337 5.23904C20.1231 5.1139 20.228 4.99717 20.3128 4.8695C20.3316 4.84128 20.3411 4.79262 20.3633 4.77928L21.4751 4.99362L24.3122 5.54059L24.9794 5.66922L26.3848 5.94019L30.3572 6.70602C30.3574 6.70607 30.357 6.70598 30.3572 6.70602C30.167 7.29376 29.9817 7.88173 29.8367 8.48244C29.6902 9.08944 29.5804 9.70396 29.4785 10.3197C29.3803 10.9126 29.3015 11.5093 29.2328 12.1062C29.1616 12.725 29.1051 13.3447 29.0663 13.9663C29.0291 14.5627 29.0133 15.1607 29.0104 15.7582C29.0075 16.3649 29.0125 16.9725 29.0424 17.5787C29.0737 18.2146 29.1225 18.8482 29.1871 19.4815C29.2471 20.0689 29.3211 20.6558 29.4105 21.2394C29.5056 21.86 29.6063 22.4801 29.74 23.0938C29.8665 23.6742 30.0195 24.2489 30.2025 24.8142C30.2543 24.9741 30.3061 25.1341 30.3578 25.294C30.3574 25.2941 30.3569 25.2942 30.3565 25.2943L26.3851 26.0599L24.9799 26.3309L24.3123 26.4596L22.1774 26.8712L21.4751 27.0065L20.3515 27.2232C20.3516 27.2232 20.3515 27.2231 20.3515 27.2232C20.3462 27.2188 20.3405 27.181 20.3375 27.1739C20.3294 27.155 20.318 27.1379 20.3063 27.1212C20.2094 26.9833 20.0997 26.8534 20.0015 26.7159C19.9813 26.6876 19.9618 26.6588 19.942 26.6302C19.9063 26.5787 19.8709 26.5271 19.8358 26.4752C19.8131 26.4415 19.7903 26.4077 19.7678 26.3739C19.7256 26.3107 19.684 26.2473 19.6429 26.1834C19.5807 26.0867 19.5194 25.9896 19.4597 25.8916C19.3922 25.7811 19.326 25.6699 19.2618 25.5576C19.2577 25.5504 19.2537 25.5431 19.2497 25.536C19.2382 25.5157 19.2269 25.4953 19.2155 25.475C19.1788 25.4097 19.1426 25.3441 19.107 25.2781C19.0914 25.2491 19.0758 25.22 19.0604 25.1909C18.9748 25.029 18.893 24.8654 18.8135 24.7007C18.7837 24.639 18.7538 24.5773 18.7247 24.5152C18.6849 24.4303 18.6454 24.3453 18.6068 24.2598C18.5688 24.1755 18.5316 24.0908 18.4945 24.006C18.4802 23.9735 18.4656 23.9412 18.4515 23.9086C18.4393 23.8805 18.4276 23.8521 18.4156 23.8239C18.3067 23.5676 18.2027 23.3091 18.1023 23.0494C18.0786 22.9878 18.0542 22.9265 18.0309 22.8647C18.0242 22.8463 18.0176 22.828 18.0107 22.8097C17.956 22.6636 17.9019 22.5175 17.8495 22.3707C17.8474 22.3646 17.8451 22.3586 17.843 22.3525C17.7864 22.1936 17.7313 22.0341 17.6778 21.8741C17.6095 21.67 17.5439 21.4651 17.4833 21.2586C17.3513 20.8091 17.2434 20.3544 17.1616 19.8933C17.1482 19.8177 17.1362 19.7418 17.124 19.666C17.0719 19.3345 17.0298 19.0017 16.9911 18.6684C16.9903 18.6609 16.9894 18.6534 16.9886 18.6459C16.9817 18.5861 16.9764 18.5262 16.97 18.4664C16.9222 17.9938 16.8815 17.521 16.8519 17.0469C16.8414 16.874 16.8324 16.701 16.8259 16.5279C16.8125 16.1731 16.8105 15.8197 16.8211 15.465C16.8225 15.4264 16.8235 15.3878 16.8251 15.3493C16.8265 15.3134 16.8281 15.2776 16.8297 15.2417C16.8336 15.1572 16.838 15.0727 16.8431 14.9882C16.8447 14.9618 16.8462 14.9355 16.8479 14.9091C16.8516 14.8513 16.8556 14.7935 16.8597 14.7358C16.8675 14.6223 16.876 14.509 16.8851 14.3957C16.8876 14.3639 16.8901 14.332 16.8927 14.3002C16.8989 14.2225 16.9063 14.145 16.9131 14.0673C16.9292 13.8815 16.9474 13.6959 16.9676 13.5105C16.9678 13.5089 16.968 13.5073 16.9681 13.5057C16.9917 13.2884 17.018 13.0713 17.0464 12.8545C17.0518 12.8148 17.0568 12.775 17.0624 12.7353C17.0648 12.718 17.0675 12.7007 17.07 12.6834C17.0879 12.5561 17.1078 12.4291 17.1293 12.3023C17.1383 12.2494 17.147 12.1965 17.1566 12.1437C17.1628 12.1096 17.1693 12.0756 17.1757 12.0415C17.1901 11.965 17.2052 11.8887 17.221 11.8124C17.226 11.7884 17.2309 11.7644 17.236 11.7404C17.2553 11.6495 17.2755 11.5588 17.2967 11.4683C17.2996 11.4558 17.3023 11.4432 17.3053 11.4307C17.3309 11.3228 17.3579 11.2153 17.3863 11.1082ZM37.0014 4.19888L38.2765 6.35191C38.0398 6.3431 37.8032 6.33455 37.5666 6.32584C37.1966 6.31227 36.8266 6.29869 36.4567 6.28512C36.2369 6.27687 36.0171 6.26827 35.7973 6.25907C35.6996 6.25477 35.6019 6.2508 35.5043 6.24593C35.2825 6.2357 35.0607 6.22393 34.8389 6.21222C34.4778 6.1943 34.117 6.17232 33.756 6.15081C33.5873 6.1402 33.4185 6.12934 33.2499 6.11727C33.2442 6.11687 33.2385 6.1165 33.2328 6.11609C33.1332 6.10892 33.0337 6.10144 32.9342 6.09348C32.7678 6.08017 32.6014 6.06497 32.4354 6.04718C32.4303 6.04664 32.4252 6.04618 32.4201 6.04563C32.367 6.03988 32.3139 6.03333 32.2608 6.02692C32.1367 6.0122 32.0129 5.9944 31.8891 5.97682C31.5616 5.92859 31.2357 5.87293 30.9099 5.81328C30.8925 5.81008 30.8752 5.80692 30.8578 5.80369C30.7132 5.77697 30.5687 5.74883 30.4244 5.72017C30.3737 5.7101 30.3231 5.69998 30.2724 5.68974C30.1308 5.66106 29.9892 5.63208 29.8477 5.60236C29.6901 5.56922 29.5324 5.53673 29.3747 5.50392C29.3042 5.48925 29.2338 5.47379 29.1634 5.4589C29.0401 5.43286 28.9168 5.40706 28.7939 5.3796C28.3845 5.28817 27.9751 5.19668 27.5658 5.10523C27.5347 5.09826 27.5036 5.09122 27.4725 5.08426C27.1099 5.0031 26.7473 4.92238 26.3848 4.84085L26.3848 3.97549L37.0014 4.19888ZM49.7516 4.46714L53.2849 4.54149C53.285 4.54149 53.2848 4.54149 53.2849 4.54149C53.2145 4.5714 53.1444 4.60136 53.0742 4.63124C53.0645 4.63529 53.0543 4.63921 53.0447 4.6433C52.9593 4.67982 52.874 4.71633 52.7886 4.75285C52.4479 4.8977 52.1071 5.04245 51.7668 5.1881C51.1226 5.46377 50.4785 5.73935 49.8343 6.01501C49.67 6.08534 49.5063 6.15625 49.3403 6.22042C49.0254 6.34024 48.7057 6.42246 48.3689 6.46251C48.2884 6.47211 48.2075 6.47939 48.1267 6.48682C48.1169 6.48686 48.1071 6.48689 48.0973 6.48693C47.9548 6.48745 47.8123 6.48796 47.6698 6.48849C47.656 6.48834 47.6421 6.48796 47.6283 6.4879C46.9291 6.48472 46.2299 6.48153 45.5307 6.47835C45.3252 6.4774 45.1196 6.47647 44.914 6.47553C44.4507 6.47214 43.9874 6.46876 43.5242 6.46535C43.4527 6.46484 43.3812 6.46437 43.3097 6.46385C43.1369 6.46066 42.964 6.45695 42.7912 6.45403C42.5912 6.45065 42.3912 6.44727 42.1913 6.4439C41.9652 6.43924 41.7391 6.43458 41.5131 6.42993C41.1138 6.42168 40.7145 6.41346 40.3153 6.40524C40.3118 6.40197 40.3087 6.39777 40.3058 6.39137L39.8496 4.2588L49.7516 4.46714ZM53.2851 27.4587L49.7516 27.533L39.8496 27.7414L40.3065 25.6056C40.309 25.6009 40.3119 25.5977 40.3154 25.5951C40.6664 25.5879 41.0174 25.5807 41.3684 25.5735C41.6676 25.5673 41.9669 25.5611 42.2661 25.555C42.5963 25.5494 42.9266 25.5438 43.2568 25.5382C43.3434 25.5368 43.4299 25.5364 43.5165 25.5351C44.0162 25.5315 44.5158 25.5278 45.0155 25.5242C45.3722 25.5225 45.7288 25.5209 46.0855 25.5193C46.6149 25.5169 47.1443 25.5145 47.6737 25.5121C47.8098 25.5126 47.9459 25.5131 48.082 25.5136C48.0874 25.5138 48.0929 25.5142 48.0983 25.5144C48.1245 25.5154 48.1507 25.5168 48.1769 25.5184C48.2409 25.5244 48.305 25.5301 48.3689 25.5377C48.7347 25.5812 49.0807 25.6722 49.4219 25.8097C49.5868 25.8762 49.7504 25.9464 49.9139 26.0169C49.9664 26.0399 50.0189 26.0627 50.0714 26.0852C50.2279 26.152 50.3844 26.2189 50.5408 26.2858C50.8956 26.4375 51.2503 26.5893 51.6051 26.7411C52.085 26.9463 52.5648 27.1516 53.0447 27.3569C53.0614 27.364 53.0792 27.3709 53.0963 27.378C53.1592 27.4049 53.2221 27.4318 53.2851 27.4587ZM26.3851 28.0247L26.3851 27.1595C26.6997 27.0887 27.0145 27.0186 27.3291 26.9482C27.8062 26.8415 28.2832 26.7347 28.7603 26.6279C28.7707 26.6257 28.7811 26.6233 28.7915 26.621C28.9369 26.5885 29.0828 26.558 29.2287 26.5273C29.3084 26.5104 29.3881 26.4932 29.4679 26.4765C29.6424 26.4403 29.817 26.4044 29.9913 26.3677C30.3799 26.2859 30.7703 26.2128 31.1609 26.1409C31.2543 26.1237 31.3479 26.1074 31.4416 26.0918C31.4515 26.0901 31.4615 26.0883 31.4715 26.0867C31.5619 26.0717 31.6524 26.0575 31.7431 26.044C31.7533 26.0424 31.7636 26.0407 31.7739 26.0392C31.9752 26.0094 32.1771 25.9828 32.3794 25.9593C32.476 25.9482 32.5728 25.938 32.6696 25.9287C32.9184 25.9051 33.1678 25.8872 33.417 25.8705C33.4617 25.8676 33.5063 25.8645 33.5509 25.8617C33.9546 25.8364 34.3585 25.8116 34.7625 25.7917C34.9319 25.783 35.1013 25.7741 35.2707 25.7655C35.4051 25.7587 35.5395 25.752 35.674 25.7466C35.6866 25.746 35.6993 25.7455 35.7119 25.7449C36.0067 25.7333 36.3014 25.7217 36.5961 25.7101C36.8705 25.7001 37.1449 25.69 37.4193 25.6799C37.7049 25.6694 37.9906 25.6589 38.2763 25.6485L37.0014 27.8013L26.3851 28.0247ZM65.8761 8.14825C66.0784 8.35241 66.1602 8.66995 66.2378 8.93647C66.3496 9.32095 66.4268 9.71449 66.498 10.108C66.5221 10.2416 66.5441 10.3756 66.5664 10.5096C66.6086 10.7631 66.649 11.017 66.6871 11.2711C66.7472 11.6729 66.8025 12.0757 66.8496 12.4792C66.8741 12.6888 66.896 12.8988 66.9119 13.1092C66.924 13.2709 66.9364 13.4367 66.9163 13.5981C66.8964 13.7588 66.8364 13.9123 66.795 14.0681C66.7542 14.2217 66.727 14.377 66.7188 14.5356C66.6982 14.9337 66.7225 15.3376 66.7217 15.7363C66.7209 16.1278 66.7265 16.5193 66.7212 16.9108C66.7164 17.2624 66.7055 17.5987 66.7975 17.9416C66.8393 18.0974 66.8991 18.2512 66.9175 18.4123C66.9366 18.5783 66.9232 18.7484 66.9101 18.9143C66.878 19.3192 66.8272 19.7224 66.7727 20.1249C66.7152 20.5499 66.6488 20.9734 66.582 21.3971C66.577 21.4288 66.5715 21.4605 66.5664 21.4922C66.5117 21.8313 66.4506 22.1697 66.3779 22.5055C66.2999 22.8664 66.213 23.2425 66.0551 23.5784C65.9641 23.7721 65.8347 23.9464 65.6137 23.9929C65.4862 24.0197 65.3527 24.0114 65.2242 23.9984C65.0277 23.9785 64.8319 23.9469 64.6373 23.9141C64.2726 23.8527 63.8847 23.7881 63.5453 23.6363C63.3892 23.5665 63.2627 23.4614 63.132 23.3535C63.134 23.3502 63.1361 23.3464 63.1381 23.3432C63.3379 23.0122 63.4673 22.6497 63.5703 22.2792C63.5712 22.2757 63.5723 22.2723 63.5733 22.2689C63.5737 22.2674 63.574 22.2659 63.5745 22.2643C63.5768 22.2558 63.5793 22.2473 63.5817 22.2388C63.6142 22.1192 63.6442 21.999 63.6728 21.8785C63.6833 21.8346 63.6931 21.7905 63.7031 21.7465C63.722 21.6636 63.7401 21.5806 63.7575 21.4973C63.7681 21.4462 63.779 21.3951 63.7892 21.3438C63.8118 21.2299 63.8336 21.1159 63.8542 21.0017C63.8564 20.9894 63.8584 20.9771 63.8605 20.9649C63.8607 20.9638 63.8609 20.9628 63.8611 20.9618C63.8862 20.8186 63.9097 20.6752 63.9321 20.5317C63.9325 20.5293 63.9329 20.5269 63.9333 20.5245C63.9337 20.5216 63.9341 20.5187 63.9345 20.5159C63.9522 20.4023 63.9685 20.2885 63.9846 20.1748C63.9991 20.071 64.0131 19.9673 64.0267 19.8634C64.0302 19.8366 64.0339 19.8099 64.0373 19.7831C64.0382 19.7765 64.0389 19.7699 64.0397 19.7634C64.0572 19.6266 64.073 19.4895 64.0888 19.3524C64.1064 19.197 64.1228 19.0416 64.1382 18.886C64.1432 18.8353 64.1488 18.7846 64.1535 18.7338C64.1547 18.7218 64.1555 18.7098 64.1567 18.6978C64.1602 18.6589 64.1647 18.6201 64.1681 18.5813C64.1733 18.5202 64.1775 18.4589 64.1825 18.3978C64.1889 18.3203 64.1948 18.2428 64.2008 18.1653C64.2229 17.8767 64.2429 17.5879 64.2565 17.2988C64.2595 17.2369 64.2604 17.175 64.2628 17.1131C64.2657 17.0474 64.2691 16.9817 64.2718 16.9159C64.4079 16.9329 64.5479 16.9264 64.6834 16.9123C64.7357 16.9068 64.7893 16.8993 64.8388 16.8809C64.8555 16.8748 64.8717 16.8674 64.8873 16.8584C65.0337 16.7739 65.042 16.5935 65.0453 16.4438C65.0523 16.1202 65.0649 15.788 65.0412 15.4651C65.0308 15.3248 64.9961 15.1857 64.853 15.1248C64.7853 15.096 64.7094 15.0898 64.6369 15.0838C64.5158 15.0737 64.3928 15.0692 64.2718 15.0843C64.2716 15.0843 64.272 15.0843 64.2718 15.0843C64.269 15.0129 64.2654 14.9417 64.2626 14.8703C64.2615 14.8421 64.2613 14.8139 64.2601 14.7857C64.2586 14.7512 64.2566 14.7167 64.2549 14.6822C64.2547 14.6774 64.2546 14.6726 64.2543 14.6678C64.254 14.662 64.2536 14.6563 64.2533 14.6505C64.2459 14.5023 64.2374 14.3541 64.2278 14.2061C64.2277 14.2047 64.2276 14.2033 64.2275 14.2019C64.218 14.0554 64.2072 13.909 64.1956 13.7627C64.1944 13.7475 64.1932 13.7323 64.192 13.7171C64.1867 13.6503 64.1815 13.5835 64.176 13.5168C64.1568 13.2824 64.1331 13.0481 64.1073 12.8141C64.1073 12.8138 64.1073 12.8135 64.1073 12.8132C64.0943 12.6918 64.0802 12.5706 64.0659 12.4494C64.0618 12.4163 64.0586 12.383 64.0543 12.3499C64.0541 12.3482 64.054 12.3465 64.0537 12.3448C64.0525 12.3352 64.0512 12.3256 64.0499 12.316C64.0118 12.0061 63.9684 11.6967 63.919 11.3884C63.9008 11.2722 63.8818 11.1561 63.8616 11.0401C63.8518 10.9839 63.8411 10.9277 63.8308 10.8715C63.826 10.8456 63.8215 10.8197 63.8166 10.7938C63.8114 10.7659 63.8059 10.738 63.8006 10.7101C63.7342 10.3608 63.656 10.012 63.556 9.67081C63.5347 9.59633 63.5125 9.52213 63.4886 9.44848C63.4834 9.43269 63.4782 9.41691 63.4729 9.40117C63.464 9.37492 63.4558 9.34844 63.4467 9.32233C63.4438 9.31424 63.4404 9.30647 63.4375 9.29842C63.3681 9.10477 63.2863 8.91583 63.1841 8.73564C63.1673 8.70601 63.1495 8.67694 63.1318 8.64784V8.64676C63.2681 8.53419 63.3997 8.42636 63.5637 8.35583C63.7302 8.28424 63.9082 8.23812 64.0844 8.19665C64.4616 8.10792 64.8493 8.03813 65.2352 8.00082C65.4601 7.97911 65.7064 7.9769 65.8761 8.14825ZM61.0421 4.99781C61.103 5.00063 61.164 5.00281 61.2249 5.00607C61.4712 5.01929 61.731 5.02247 61.9723 5.07766C62.0128 5.08688 62.0887 5.10019 62.0849 5.15423C62.0812 5.20737 61.9944 5.25096 61.9549 5.27349C61.7329 5.39968 61.4788 5.4774 61.238 5.55927C61.173 5.5814 61.1074 5.60207 61.0421 5.62346C60.5798 5.77487 60.1115 5.90968 59.6413 6.03362C59.1188 6.17133 58.5867 6.31443 58.0432 6.32324C57.4202 6.33336 56.7949 6.30038 56.1722 6.28634C55.6493 6.27459 55.1258 6.25639 54.6037 6.22357C54.4864 6.21493 54.3677 6.20872 54.2516 6.18831C54.1994 6.17909 54.1106 6.15901 54.2003 6.12097C54.202 6.12025 54.2038 6.11977 54.2055 6.11906C54.3133 6.07415 54.4347 6.04996 54.5468 6.01974C54.834 5.94236 55.1229 5.87126 55.4115 5.79918C55.9312 5.66947 56.4547 5.54629 56.9799 5.44033C57.569 5.3214 58.1604 5.21503 58.7504 5.10002C59.0061 5.05023 59.2525 4.99121 59.5138 4.97945C59.8075 4.96623 60.1021 4.97112 60.3959 4.97619C60.5771 4.97929 60.7583 4.98558 60.9394 4.99318C60.9736 4.99462 61.0078 4.99623 61.0421 4.99781ZM59.5138 27.0208C59.2525 27.009 59.0061 26.95 58.7504 26.9002C58.1604 26.7852 57.569 26.6789 56.9799 26.5599C56.4547 26.454 55.9312 26.3308 55.4115 26.2011C55.1229 26.129 54.834 26.0579 54.5468 25.9805C54.4347 25.9503 54.3133 25.9261 54.2055 25.8812C54.2038 25.8805 54.202 25.88 54.2003 25.8793C54.1106 25.8412 54.1994 25.8212 54.2516 25.8119C54.3677 25.7915 54.4864 25.7853 54.6037 25.7767C55.1258 25.7439 55.6493 25.7257 56.1722 25.7139C56.7949 25.6999 57.4202 25.6669 58.0432 25.677C58.5867 25.6858 59.1188 25.8289 59.6413 25.9666C60.1115 26.0906 60.5799 26.2254 61.0422 26.3768C61.1075 26.3982 61.173 26.4189 61.238 26.441C61.4788 26.5229 61.7329 26.6006 61.9549 26.7268C61.9944 26.7493 62.0812 26.7929 62.0849 26.846C62.0887 26.9001 62.0128 26.9134 61.9723 26.9226C61.731 26.9778 61.4712 26.981 61.2249 26.9942C61.1641 26.9974 61.1031 26.9996 61.0422 27.0024C61.0079 27.004 60.9737 27.0056 60.9394 27.0071C60.7583 27.0147 60.5771 27.021 60.3959 27.0241C60.1021 27.0291 59.8075 27.034 59.5138 27.0208ZM7.93295 28.912C7.55124 28.9032 7.16977 28.8476 6.79988 28.7544C6.42768 28.6606 6.06599 28.5244 5.72039 28.3584C5.40352 28.2061 5.09328 28.0295 4.83468 27.7895C4.54726 27.5228 4.29571 27.2114 4.05188 26.9057C3.80156 26.5918 3.56832 26.266 3.36174 25.9218C3.15418 25.576 2.97075 25.2161 2.79093 24.8555C2.70566 24.6844 2.61957 24.5127 2.54439 24.3369C2.50614 24.2476 2.46084 24.1473 2.45887 24.0479C2.45461 23.8366 2.66153 23.9301 2.77534 24.0009C2.95131 24.1833 3.15609 24.3442 3.34253 24.5007C3.68879 24.7914 4.04162 25.075 4.39764 25.3537C4.77911 25.6524 5.15927 25.9533 5.54451 26.2471C5.93558 26.5454 6.32665 26.8435 6.72346 27.1342C7.1371 27.4372 7.55632 27.7317 7.97645 28.0257C8.01154 28.0503 8.04308 28.0788 8.07945 28.0964L8.09718 28.1101C8.17063 28.1569 8.24179 28.2071 8.31122 28.2596C8.43663 28.3545 8.56712 28.4571 8.66249 28.5834C8.70615 28.6412 8.75088 28.7171 8.69934 28.7839C8.66289 28.8312 8.60027 28.8552 8.53866 28.8699C8.51136 28.8764 8.48421 28.8813 8.45969 28.8853C8.2866 28.9135 8.10785 28.916 7.93295 28.912ZM2.46535 7.89691C2.49514 7.73332 2.58116 7.577 2.65256 7.4286C2.7613 7.20265 2.87349 6.97849 2.98823 6.75548C3.19464 6.35427 3.41771 5.96073 3.67771 5.59127C3.94625 5.20965 4.24368 4.84721 4.5553 4.49971C4.83869 4.18372 5.14983 3.9385 5.52621 3.73973C5.91613 3.53387 6.33059 3.36864 6.75761 3.25681C7.18651 3.14449 7.63388 3.08187 8.07781 3.08742C8.1441 3.08828 8.37539 3.083 8.54219 3.12795L8.53781 3.13077C8.53934 3.12986 8.54066 3.12886 8.54219 3.12795C8.66209 3.1603 8.74904 3.21852 8.71599 3.32448C8.67479 3.45672 8.52313 3.56953 8.42259 3.6528C8.31946 3.73823 8.20965 3.81446 8.09935 3.89014C8.05151 3.92296 8.00348 3.95583 7.95593 3.98911C7.5363 4.28282 7.1179 4.57733 6.70475 4.88002C6.31073 5.16866 5.92253 5.46506 5.53417 5.76122C5.15073 6.05361 4.77222 6.35295 4.39281 6.65049C4.03062 6.93448 3.67181 7.22329 3.3194 7.5192C3.14157 7.6685 2.94964 7.82254 2.782 7.99536C2.71711 8.03811 2.62247 8.09517 2.54669 8.08899C2.45419 8.08148 2.4528 7.96565 2.46535 7.89691Z" fill="#0D59FB"/>
</svg>
