<?xml version="1.0" ?><svg fill="#F09F00" height="24" viewBox="0 0 24 24" width="24" xmlns="http://www.w3.org/2000/svg"><path clip-rule="evenodd" d="M11.5 12.5C10.9477 12.5 10.5 12.9477 10.5 13.5C10.5 14.0523 10.9477 14.5 11.5 14.5C12.0523 14.5 12.5 14.0523 12.5 13.5C12.5 12.9477 12.0523 12.5 11.5 12.5ZM9.5 13.5C9.5 12.3954 10.3954 11.5 11.5 11.5C12.6046 11.5 13.5 12.3954 13.5 13.5C13.5 14.6046 12.6046 15.5 11.5 15.5C10.3954 15.5 9.5 14.6046 9.5 13.5Z" fill="#F09F00" fill-rule="evenodd"/><path clip-rule="evenodd" d="M9.05001 17.5H13.95C13.7184 16.3589 12.7095 15.5 11.5 15.5C10.2905 15.5 9.28164 16.3589 9.05001 17.5ZM8 18C8 16.067 9.567 14.5 11.5 14.5C13.433 14.5 15 16.067 15 18C15 18.2761 14.7761 18.5 14.5 18.5H8.5C8.22386 18.5 8 18.2761 8 18Z" fill="#F09F00" fill-rule="evenodd"/><path clip-rule="evenodd" d="M4.5 10.5C4.5 9.39543 5.39543 8.5 6.5 8.5H16.5C17.6046 8.5 18.5 9.39543 18.5 10.5V19.5C18.5 20.6046 17.6046 21.5 16.5 21.5H6.5C5.39543 21.5 4.5 20.6046 4.5 19.5V10.5ZM6.5 9.5C5.94772 9.5 5.5 9.94772 5.5 10.5V19.5C5.5 20.0523 5.94772 20.5 6.5 20.5H16.5C17.0523 20.5 17.5 20.0523 17.5 19.5V10.5C17.5 9.94772 17.0523 9.5 16.5 9.5H6.5Z" fill="#F09F00" fill-rule="evenodd"/><path clip-rule="evenodd" d="M7 6.5C7 4.29086 8.79086 2.5 11 2.5H12C14.2091 2.5 16 4.29086 16 6.5V9H15V6.5C15 4.84315 13.6569 3.5 12 3.5H11C9.34315 3.5 8 4.84315 8 6.5V9H7V6.5Z" fill="#F09F00" fill-rule="evenodd"/></svg>